<svg width="260" height="51" viewBox="0 0 260 51" fill="none" xmlns="http://www.w3.org/2000/svg">
<g clip-path="url(#clip0_48_2)">
<path d="M2.42684 0C17.981 0 33.5351 0 49.0892 0C49.082 0.0216682 49.0784 0.0469477 49.064 0.0613932C49.0098 0.119175 48.952 0.176957 48.8942 0.234739C45.3876 3.73776 41.8846 7.23717 38.3779 10.7402C38.2877 10.8305 38.1974 10.9171 38.1035 11.0038C37.9662 11.0435 37.829 11.0255 37.6918 11.0255C29.0028 11.0255 20.3139 11.0255 11.625 11.0255C11.1736 11.0255 11.1736 11.0255 11.1555 11.0688C11.0977 11.2133 11.1266 11.365 11.1266 11.513C11.1266 20.1803 11.1266 28.8512 11.1266 37.5184C11.1266 37.634 11.1266 37.7496 11.1266 37.8651C11.1266 37.9374 11.0977 37.9987 11.0435 38.0493C10.9822 38.1035 10.928 38.1649 10.8738 38.219C7.35996 41.7293 3.8461 45.2395 0.335857 48.7498C0.270852 48.8148 0.209459 48.8834 0.137232 48.9412C0.104729 48.9665 0.0505591 48.9628 0.00722272 48.9737C0 33.434 0 17.8943 0 2.35461C0 1.05452 1.05452 0 2.35461 0H2.42684Z" fill="#E3000F"/>
<path d="M232.546 50.4255C232.546 49.5154 232.546 48.6018 232.546 47.6917C232.546 45.0698 232.546 42.4516 232.546 39.8298C232.546 39.7142 232.55 39.5986 232.55 39.4831C232.55 39.4361 232.59 39.3928 232.633 39.3892C232.702 39.3856 232.77 39.3783 232.839 39.3783C234.814 39.3783 236.79 39.3783 238.765 39.3783C238.787 39.3783 238.812 39.3783 238.834 39.3783C239.018 39.3783 239.054 39.4072 239.05 39.5986C239.047 39.6925 239.05 39.7828 239.05 39.8767C239.05 41.6318 239.05 43.387 239.05 45.1385C239.05 45.254 239.054 45.3696 239.054 45.4852C239.054 45.5357 239.094 45.5754 239.134 45.5791C239.213 45.5827 239.296 45.5863 239.376 45.5863C243.998 45.5863 248.617 45.5863 253.24 45.5863C253.319 45.5863 253.402 45.5863 253.481 45.5791C253.507 45.5754 253.536 45.5429 253.554 45.5177C253.565 45.4996 253.561 45.4743 253.561 45.449C253.561 45.3551 253.561 45.2649 253.561 45.171C253.561 42.2747 253.561 39.3783 253.561 36.4784C253.561 36.3737 253.557 36.2726 253.554 36.1678C253.554 36.1245 253.507 36.0848 253.463 36.0848C253.427 36.0848 253.395 36.0812 253.359 36.0812C253.254 36.0812 253.149 36.0812 253.048 36.0812C246.371 36.0812 239.693 36.0812 233.016 36.0812C232.889 36.0812 232.763 36.0776 232.637 36.0739C232.593 36.0739 232.55 36.0306 232.55 35.9873C232.546 35.9295 232.543 35.8717 232.543 35.8139C232.543 34.3947 232.543 32.9754 232.543 31.5561C232.543 31.4875 232.55 31.4189 232.554 31.3503C232.557 31.3069 232.593 31.2925 232.626 31.2853C232.669 31.2744 232.716 31.2744 232.763 31.2744C232.868 31.2744 232.973 31.2744 233.074 31.2744C241.889 31.2744 250.704 31.2744 259.52 31.2744C259.635 31.2744 259.751 31.2781 259.866 31.2708C259.91 31.2708 259.957 31.2528 260 31.2419C260 37.6377 260 44.0334 260 50.4291C250.849 50.4255 241.698 50.4255 232.546 50.4255Z" fill="#21327A"/>
<path d="M58.4499 50.4254C58.4499 48.9122 58.4499 47.4027 58.4499 45.8895C58.4499 45.8101 58.4499 45.727 58.4607 45.6476C58.4643 45.6223 58.5041 45.5898 58.5293 45.5862C58.6341 45.579 58.7352 45.579 58.8399 45.579C59.8005 45.579 60.7576 45.579 61.7182 45.579C66.4996 45.579 71.2847 45.579 76.0661 45.579C76.1708 45.579 76.2756 45.5826 76.3767 45.579C76.4742 45.5753 76.5103 45.5645 76.5139 45.4273C76.5139 45.4056 76.5139 45.3803 76.5139 45.3587C76.5139 44.575 76.5139 43.7877 76.5139 43.0041C76.5139 42.9463 76.5103 42.8885 76.4995 42.8307C76.4923 42.7982 76.4742 42.7621 76.4345 42.7621C76.355 42.7549 76.272 42.7513 76.1925 42.7513C75.593 42.7513 74.9899 42.7513 74.3904 42.7513C71.5952 42.7513 68.8001 42.7513 66.0049 42.7513C65.9001 42.7513 65.7954 42.7549 65.6943 42.7476C65.604 42.744 65.5498 42.7296 65.5498 42.5996C65.5498 42.5779 65.5498 42.5526 65.5498 42.531C65.5498 41.2598 65.5498 39.9922 65.5498 38.721C65.5498 38.6632 65.557 38.6054 65.5679 38.5512C65.5715 38.5332 65.5932 38.5115 65.6112 38.5043C65.6437 38.4935 65.6762 38.4862 65.7123 38.4826C65.8171 38.479 65.9218 38.4826 66.0229 38.4826C69.3598 38.4826 72.7003 38.4826 76.0372 38.4826C76.1528 38.4826 76.2684 38.4826 76.3839 38.479C76.4598 38.479 76.5067 38.4285 76.5067 38.3454C76.5103 38.2407 76.5103 38.1359 76.5103 38.0348C76.5103 37.457 76.5103 36.8792 76.5103 36.305C76.5103 36.258 76.5067 36.2111 76.5067 36.1677C76.5067 36.128 76.4598 36.0739 76.42 36.0739C76.3261 36.0702 76.2358 36.0666 76.1419 36.0666C75.3691 36.0666 74.5927 36.0666 73.8198 36.0666C68.9084 36.0666 64.0006 36.0666 59.0891 36.0666C58.9735 36.0666 58.858 36.063 58.7424 36.0594C58.6991 36.0594 58.6557 36.0161 58.6521 35.9691C58.6485 35.9113 58.6449 35.8536 58.6449 35.7958C58.6449 34.3657 58.6449 32.932 58.6449 31.5019C58.6449 31.4658 58.6449 31.4333 58.6449 31.3971C58.6485 31.3032 58.6666 31.2527 58.793 31.2527C58.8869 31.2527 58.9771 31.2527 59.071 31.2527C66.4888 31.2527 73.9029 31.2527 81.3206 31.2527C81.4362 31.2527 81.5518 31.2563 81.6673 31.2671C81.6854 31.2671 81.7071 31.2924 81.7179 31.3105C81.7287 31.3285 81.7323 31.3538 81.7323 31.3755C81.736 31.491 81.736 31.6066 81.736 31.7222C81.736 37.8145 81.736 43.9105 81.736 50.0029C81.736 50.1401 81.7396 50.281 81.7396 50.4182C73.9787 50.4254 66.2143 50.4254 58.4499 50.4254Z" fill="#E3000F"/>
<path d="M144.7 50.4254C144.689 50.3821 144.675 50.3351 144.675 50.2918C144.671 50.1871 144.671 50.0823 144.671 49.9812C144.671 43.9105 144.671 37.8398 144.671 31.7655C144.671 31.6608 144.671 31.556 144.671 31.4549C144.675 31.3069 144.707 31.2744 144.855 31.2708C144.935 31.2708 145.018 31.2708 145.097 31.2708C146.979 31.2708 148.864 31.2708 150.745 31.2708C150.85 31.2708 150.955 31.2744 151.056 31.278C151.114 31.2816 151.157 31.3285 151.161 31.3935C151.164 31.4983 151.164 31.603 151.164 31.7041C151.164 33.8168 151.164 35.9294 151.164 38.0421C151.164 38.1576 151.168 38.2732 151.172 38.3887C151.172 38.4465 151.222 38.4935 151.284 38.4971C151.352 38.5007 151.421 38.5007 151.493 38.5007C152.28 38.5007 153.064 38.5007 153.851 38.5007C153.898 38.5007 153.945 38.4971 153.988 38.5007C154.075 38.5043 154.144 38.4718 154.209 38.4176C154.288 38.3526 154.371 38.2876 154.451 38.2226C157.224 35.9764 159.998 33.7337 162.771 31.4874C162.815 31.4513 162.862 31.4188 162.905 31.3791C162.984 31.3033 163.078 31.2671 163.19 31.2744C163.248 31.278 163.306 31.2744 163.364 31.2744C165.938 31.2744 168.517 31.2744 171.092 31.2744C171.171 31.2744 171.254 31.278 171.334 31.2852C171.341 31.2852 171.355 31.2996 171.355 31.3105C171.359 31.3321 171.363 31.361 171.352 31.3719C171.29 31.426 171.229 31.4766 171.164 31.5272C168.781 33.4087 166.393 35.2866 164.01 37.1681C162.768 38.1468 161.525 39.1255 160.283 40.1041C160.211 40.1619 160.142 40.2197 160.074 40.2847C160.063 40.2955 160.066 40.3353 160.077 40.3461C160.135 40.4003 160.193 40.4544 160.258 40.505C161.359 41.3465 162.461 42.1879 163.562 43.0293C166.7 45.4273 169.839 47.8252 172.977 50.2196C173.06 50.281 173.15 50.3351 173.197 50.4362C170.124 50.4362 167.051 50.4362 163.977 50.4362C163.306 50.0462 162.724 49.5334 162.11 49.0603C159.568 47.0994 157.022 45.1492 154.487 43.1774C154.18 42.9391 153.862 42.8163 153.468 42.8343C152.891 42.856 152.313 42.8379 151.735 42.8416C151.265 42.8416 151.244 42.8668 151.24 43.3255C151.24 45.5284 151.24 47.735 151.237 49.9379C151.237 50.1076 151.273 50.2882 151.146 50.4362C148.998 50.4254 146.849 50.4254 144.7 50.4254Z" fill="#21327A"/>
<path d="M88.3375 50.4254H85.4196C85.4593 50.3496 85.4484 50.2665 85.4484 50.1871C85.4484 49.7609 85.4484 49.3348 85.4484 48.905C85.4484 47.948 85.4484 46.991 85.4484 46.0304C85.4484 45.9365 85.4484 45.8462 85.4484 45.7523C85.4521 45.6151 85.4809 45.5826 85.6073 45.5826C85.7012 45.5826 85.7915 45.5826 85.8854 45.5826C86.3007 45.5826 86.716 45.5753 87.1313 45.5862C87.3516 45.5898 87.5394 45.5212 87.7164 45.4056C87.8897 45.29 88.0378 45.1456 88.1714 44.9831C88.3736 44.7447 88.5398 44.4811 88.6842 44.203C88.9767 43.6505 89.1898 43.0654 89.3668 42.4696C89.5762 41.7617 89.7351 41.0431 89.8651 40.3136C89.9626 39.7683 90.0421 39.2193 90.1107 38.6704C90.1793 38.1215 90.2263 37.569 90.2768 37.0164C90.3166 36.5578 90.3491 36.0955 90.3816 35.6369C90.3888 35.5466 90.396 35.4527 90.3996 35.3588C90.4538 34.1598 90.4935 32.9609 90.4935 31.7619C90.4935 31.1985 90.4032 31.2635 90.9847 31.2635C97.9943 31.2635 105.004 31.2635 112.017 31.2635C112.133 31.2635 112.248 31.2635 112.364 31.2671C112.465 31.2707 112.505 31.3141 112.508 31.4188C112.512 31.5344 112.508 31.6499 112.508 31.7655C112.508 37.847 112.508 43.9286 112.508 50.0065C112.508 50.1437 112.49 50.2846 112.526 50.4182H106.495C106.347 50.2376 106.394 50.0209 106.394 49.8187C106.391 45.4814 106.394 41.1442 106.391 36.8033C106.391 36.1822 106.391 36.1822 105.759 36.1822C102.711 36.1822 99.6628 36.1822 96.6112 36.1822C95.9936 36.1822 95.99 36.1822 95.9936 36.8178C96.0008 39.1435 95.8058 41.4476 95.2894 43.7191C94.9824 45.077 94.5346 46.3843 93.7762 47.5652C92.9312 48.8834 91.8008 49.8151 90.2804 50.2159C89.6123 50.4254 88.3809 50.4254 88.3375 50.4254Z" fill="#21327A"/>
<path d="M205.021 50.4254C205.031 50.3929 205.046 50.3604 205.05 50.3279C205.053 50.2123 205.053 50.0968 205.053 49.9812C205.053 46.5396 205.053 43.1016 205.053 39.6599C205.053 39.5335 205.057 39.4071 205.06 39.2808C205.06 39.2482 205.118 39.1905 205.151 39.1869C205.187 39.1832 205.219 39.1832 205.255 39.1832C205.36 39.1832 205.465 39.1832 205.566 39.1832C211.229 39.1832 216.891 39.1832 222.554 39.1832C223.077 39.1832 223.023 39.2446 223.023 38.7282C223.023 37.9554 223.023 37.1825 223.023 36.4061C223.023 36.3267 223.023 36.2436 223.012 36.1641C223.009 36.1353 222.991 36.0991 222.947 36.0919C222.915 36.0883 222.879 36.0811 222.846 36.0811C222.742 36.0811 222.637 36.0811 222.536 36.0811C216.862 36.0811 211.189 36.0811 205.515 36.0811C205.4 36.0811 205.284 36.0811 205.169 36.0775C205.111 36.0775 205.068 36.0269 205.064 35.9655C205.06 35.8969 205.057 35.8283 205.057 35.7597C205.057 34.3621 205.057 32.9645 205.057 31.5705C205.057 31.5127 205.057 31.4549 205.06 31.3971C205.064 31.3358 205.107 31.2852 205.165 31.278C205.201 31.2744 205.234 31.2744 205.27 31.2708C205.349 31.2708 205.432 31.2708 205.512 31.2708C211.579 31.2708 217.646 31.2708 223.713 31.2708C223.966 31.2708 224.222 31.278 224.475 31.2996C225.703 31.3935 226.779 31.8486 227.704 32.6611C228.578 33.434 229.141 34.3946 229.408 35.5322C229.488 35.8716 229.524 36.2147 229.527 36.5614C229.527 37.2439 229.531 37.9229 229.527 38.6054C229.524 39.2121 229.419 39.8008 229.202 40.3678C228.885 41.2092 228.354 41.8954 227.649 42.4515C227.032 42.9355 226.342 43.2713 225.595 43.4988C224.963 43.6902 224.316 43.7841 223.648 43.7841C219.813 43.7805 215.974 43.7805 212.139 43.7805C212.081 43.7805 212.023 43.7805 211.965 43.7805C211.521 43.7841 211.568 43.7263 211.568 44.1958C211.568 46.146 211.568 48.0961 211.568 50.0498C211.568 50.1762 211.557 50.3026 211.554 50.429C209.365 50.4254 207.191 50.4254 205.021 50.4254Z" fill="#21327A"/>
<path d="M185.328 50.4254C185.335 50.3784 185.346 50.3351 185.35 50.2881C185.353 50.1942 185.35 50.104 185.35 50.0101C185.35 45.5211 185.35 41.0322 185.35 36.5397C185.35 36.0052 185.429 36.0774 184.898 36.0774C181.893 36.0738 178.892 36.0774 175.888 36.0738C175.44 36.0738 175.552 36.1388 175.314 35.7668C174.414 34.3837 173.519 32.9969 172.623 31.6138C172.565 31.5271 172.515 31.4368 172.464 31.3465C172.45 31.3213 172.479 31.2779 172.511 31.2743C172.547 31.2707 172.58 31.2671 172.616 31.2671C172.71 31.2671 172.8 31.2671 172.894 31.2671C182.518 31.2671 192.143 31.2671 201.763 31.2671C201.89 31.2671 202.016 31.2707 202.142 31.2779C202.189 31.2779 202.229 31.3249 202.233 31.3646C202.236 31.4224 202.24 31.4802 202.24 31.5379C202.24 32.9572 202.24 34.3765 202.24 35.7957C202.24 35.8535 202.236 35.9113 202.236 35.9691C202.233 36.0305 202.189 36.0738 202.124 36.0738C202.009 36.0774 201.893 36.0774 201.778 36.0774C198.61 36.0774 195.447 36.0774 192.28 36.0774C192.164 36.0774 192.049 36.0774 191.933 36.081C191.875 36.081 191.832 36.128 191.832 36.193C191.828 36.2977 191.828 36.4024 191.828 36.5036C191.828 39.7682 191.828 43.0365 191.828 46.3012C191.828 47.5579 191.828 48.8183 191.828 50.0751C191.828 50.1906 191.81 50.3062 191.85 50.4181C189.672 50.4254 187.502 50.4254 185.328 50.4254Z" fill="#21327A"/>
<path d="M116.965 50.4256C116.932 50.3605 116.94 50.2919 116.94 50.2197C116.94 48.7535 116.94 47.2873 116.94 45.8211C116.94 45.785 116.94 45.7524 116.943 45.7163C116.947 45.6261 116.986 45.5863 117.066 45.5827C117.102 45.5827 117.135 45.5791 117.171 45.5791C117.25 45.5791 117.333 45.5791 117.413 45.5791C124.874 45.5791 132.338 45.5791 139.799 45.5791C139.915 45.5791 140.031 45.5827 140.146 45.5863C140.186 45.5863 140.229 45.6333 140.233 45.6802C140.236 45.785 140.24 45.8861 140.24 45.9908C140.24 47.3523 140.24 48.7138 140.24 50.0752C140.24 50.1908 140.222 50.3064 140.262 50.4183C132.497 50.4255 124.729 50.4256 116.965 50.4256Z" fill="#21327A"/>
<path d="M50.4002 24.6584C50.4002 32.2422 50.4002 39.8261 50.4002 47.41C50.4002 47.5472 50.4038 47.688 50.3966 47.8253C50.3496 48.9051 49.6274 49.8982 48.4573 50.2015C48.2587 50.2521 48.0492 50.2882 47.8397 50.281C47.735 50.2774 47.6303 50.281 47.5292 50.281C32.3 50.281 17.0709 50.281 1.84182 50.281C1.72626 50.281 1.61069 50.2774 1.49513 50.2774C1.46624 50.2774 1.44818 50.2665 1.44818 50.2377C1.44818 50.216 1.45179 50.1943 1.46263 50.1763C1.47346 50.1582 1.49152 50.1402 1.50957 50.1257C1.56736 50.0679 1.62514 50.0101 1.67931 49.9524C5.12816 46.5071 8.5734 43.0619 12.0222 39.6203C12.1198 39.5227 12.2209 39.4252 12.3184 39.3277C12.3689 39.2736 12.4339 39.2519 12.5026 39.2519C12.6181 39.2519 12.7337 39.2519 12.8493 39.2519C21.5274 39.2519 30.2055 39.2519 38.8799 39.2519C39.0063 39.2519 39.1327 39.2483 39.2591 39.2411C39.3025 39.2411 39.3458 39.1941 39.3494 39.1508C39.353 39.0822 39.3567 39.0135 39.3567 38.9449C39.3567 36.4748 39.3567 34.0046 39.3567 31.5344C39.3567 31.4658 39.3566 31.3936 39.3458 31.3286C39.3422 31.3033 39.3097 31.2708 39.2808 31.26C39.2519 31.2455 39.2122 31.2455 39.1797 31.2455C39.075 31.2455 38.9702 31.2455 38.8691 31.2455C32.8706 31.2455 26.8758 31.2455 20.8773 31.2455C20.7617 31.2455 20.6462 31.2419 20.5306 31.2383C20.5234 31.2383 20.5126 31.2311 20.5053 31.2238C20.4873 31.2022 20.4873 31.1805 20.5053 31.1624C20.5595 31.1047 20.6137 31.0433 20.6715 30.9855C24.1925 27.468 27.7136 23.9506 31.2347 20.4331C31.4767 20.1911 31.3864 20.22 31.7439 20.22C34.1021 20.22 36.4567 20.22 38.8149 20.22C38.8944 20.22 38.9775 20.22 39.0569 20.22C39.3494 20.22 39.353 20.2272 39.353 19.9058C39.353 17.5151 39.3494 15.128 39.353 12.7373C39.353 12.2172 39.2916 12.3798 39.6492 12.0222C43.1269 8.54448 46.6083 5.06674 50.0896 1.589C50.1618 1.51677 50.2413 1.44816 50.3207 1.37954C50.3316 1.37232 50.3677 1.37954 50.3785 1.39399C50.3894 1.40843 50.3894 1.43732 50.3894 1.45899C50.3894 1.57456 50.3894 1.69012 50.3894 1.80568C50.4002 9.42205 50.4002 17.0384 50.4002 24.6584Z" fill="#21327A"/>
<path d="M224.193 21.8055C219.769 21.8055 215.342 21.8055 210.918 21.8055C210.802 21.8055 210.687 21.8055 210.571 21.8018C210.517 21.8018 210.467 21.7477 210.467 21.6863C210.463 21.6068 210.463 21.5238 210.463 21.4443C210.463 18.0027 210.463 14.5647 210.463 11.1231C210.463 11.0436 210.467 10.9605 210.47 10.8811C210.47 10.8486 210.528 10.7944 210.564 10.7908C210.6 10.7872 210.633 10.7872 210.669 10.7872C210.737 10.7872 210.806 10.7872 210.878 10.7872C212.774 10.7872 214.667 10.7872 216.563 10.7872C216.678 10.7872 216.794 10.7908 216.909 10.8016C216.927 10.8016 216.953 10.8305 216.956 10.8486C216.967 10.8919 216.967 10.9389 216.971 10.9858C216.971 11.1953 216.971 11.4011 216.971 11.6106C216.971 13.2971 216.971 14.98 216.971 16.6665C216.971 17.0023 216.96 16.9879 217.292 16.9879C219.787 16.9879 222.283 16.9879 224.778 16.9879C226.869 16.9879 228.96 16.9879 231.051 16.9879C231.167 16.9879 231.282 16.9879 231.398 16.9843C231.459 16.9843 231.503 16.9337 231.503 16.8723C231.506 16.7784 231.506 16.6882 231.506 16.5943C231.506 13.6871 231.506 10.7764 231.506 7.86921C231.506 7.77532 231.506 7.68504 231.503 7.59114C231.499 7.52975 231.456 7.48641 231.394 7.4828C231.279 7.47919 231.163 7.47919 231.048 7.47919C224.345 7.47919 217.646 7.47919 210.943 7.47919C210.828 7.47919 210.712 7.47919 210.597 7.47558C210.517 7.47558 210.477 7.43224 210.474 7.34196C210.47 7.27334 210.47 7.20472 210.47 7.1325C210.47 5.76018 210.47 4.38425 210.47 3.01193C210.47 2.93248 210.474 2.84942 210.477 2.76997C210.477 2.73747 210.535 2.6833 210.571 2.6833C210.607 2.67969 210.64 2.67969 210.676 2.67969C210.77 2.67969 210.86 2.67969 210.954 2.67969C219.816 2.67969 228.679 2.67969 237.541 2.67969C237.667 2.67969 237.794 2.6833 237.92 2.68691C237.96 2.68691 238.003 2.73747 238.007 2.78081C238.01 2.81692 238.01 2.84942 238.014 2.88554C238.014 2.97943 238.014 3.06971 238.014 3.16361C238.014 9.21264 238.014 15.2617 238.014 21.3107C238.014 21.4263 238.014 21.5418 238.01 21.6574C238.007 21.7621 237.967 21.8018 237.859 21.8018C237.743 21.8055 237.628 21.8018 237.512 21.8018C233.066 21.8055 228.628 21.8055 224.193 21.8055Z" fill="#21327A"/>
<path d="M177.123 12.2317C177.123 9.18376 177.123 6.13577 177.123 3.08778C177.123 2.97221 177.13 2.85665 177.137 2.74109C177.137 2.72303 177.166 2.70497 177.184 2.69414C177.202 2.68331 177.228 2.68331 177.253 2.68331C177.347 2.68331 177.437 2.67969 177.531 2.67969C178.954 2.67969 180.373 2.67969 181.796 2.67969C181.854 2.67969 181.912 2.68331 181.969 2.67969C182.107 2.66886 182.218 2.70136 182.302 2.81693C182.341 2.8711 182.395 2.91804 182.442 2.9686C185.429 6.10327 188.416 9.24154 191.402 12.3762C191.467 12.4412 191.532 12.5062 191.597 12.5712C191.622 12.5965 191.669 12.6001 191.691 12.5784C191.756 12.5134 191.821 12.4484 191.886 12.3798C193.703 10.4405 195.516 8.50121 197.332 6.56191C198.477 5.33766 199.622 4.11702 200.766 2.89638C200.994 2.65441 200.918 2.67969 201.272 2.67969C202.753 2.67969 204.23 2.67969 205.71 2.67969C205.779 2.67969 205.848 2.67969 205.92 2.68331C205.978 2.68692 206.025 2.73386 206.025 2.79887C206.028 2.89276 206.028 2.98305 206.028 3.07694C206.028 9.18376 206.028 15.2906 206.028 21.3974C206.028 21.5021 206.025 21.6032 206.017 21.708C206.014 21.7513 205.97 21.7946 205.927 21.7946C205.858 21.7982 205.79 21.8019 205.721 21.8019C203.894 21.8019 202.07 21.8019 200.243 21.8019C200.174 21.8019 200.106 21.7982 200.033 21.7982C199.99 21.7946 199.943 21.7549 199.939 21.7116C199.936 21.6791 199.929 21.643 199.929 21.6105C199.929 21.5057 199.929 21.401 199.929 21.2999C199.929 18.0569 199.929 14.8139 199.929 11.5673C199.929 11.4517 199.929 11.3361 199.921 11.2206C199.921 11.2025 199.896 11.1845 199.882 11.17C199.878 11.1664 199.856 11.17 199.849 11.1772C199.799 11.2242 199.748 11.2711 199.701 11.3217C198.571 12.5712 197.437 13.8207 196.306 15.0703C194.772 16.764 193.237 18.4613 191.702 20.1551C191.662 20.1984 191.622 20.2381 191.583 20.2779C191.561 20.2995 191.511 20.3031 191.489 20.2815C191.449 20.2417 191.406 20.202 191.366 20.1587C189.77 18.3783 188.174 16.5979 186.577 14.8175C185.537 13.6582 184.497 12.4954 183.457 11.3361C183.41 11.2856 183.363 11.235 183.313 11.1881C183.302 11.1772 183.273 11.1845 183.251 11.1845C183.244 11.1845 183.237 11.1989 183.237 11.2097C183.233 11.2422 183.226 11.2783 183.226 11.3108C183.226 11.4156 183.226 11.5203 183.226 11.6214C183.226 14.8644 183.226 18.1074 183.226 21.354C183.226 21.4696 183.222 21.5852 183.215 21.7007C183.215 21.7441 183.168 21.7874 183.125 21.791C183.067 21.7946 183.009 21.7982 182.952 21.7982C181.092 21.7982 179.232 21.7982 177.372 21.7982C177.325 21.7982 177.278 21.7946 177.235 21.7946C177.181 21.791 177.13 21.7405 177.13 21.6791C177.126 21.5635 177.126 21.4479 177.126 21.3324C177.123 18.3024 177.123 15.2653 177.123 12.2317Z" fill="#21327A"/>
<path d="M72.2633 2.67241C76.4453 2.67241 80.6309 2.67241 84.8128 2.67241C84.9284 2.67241 85.044 2.67602 85.1595 2.67963C85.192 2.67963 85.2498 2.73741 85.2498 2.77353C85.2498 2.80964 85.2534 2.84214 85.2534 2.87826C85.2534 2.97215 85.2534 3.06244 85.2534 3.15633C85.2534 9.20536 85.2534 15.2544 85.2534 21.3034C85.2534 21.4298 85.2498 21.5562 85.2498 21.6826C85.2498 21.7187 85.1956 21.7765 85.1631 21.7765C85.1053 21.7801 85.0476 21.7837 84.9898 21.7837C83.0035 21.7837 81.0137 21.7837 79.0274 21.7837C78.9588 21.7837 78.8902 21.7765 78.8216 21.7693C78.8035 21.7657 78.7855 21.744 78.7746 21.726C78.7638 21.7079 78.7602 21.6826 78.7602 21.661C78.7566 21.5454 78.7566 21.4298 78.7566 21.3143C78.7566 16.847 78.7566 12.3798 78.7566 7.9125C78.7566 7.79693 78.753 7.68137 78.753 7.5658C78.753 7.52247 78.7096 7.48274 78.6627 7.48274C78.5832 7.47913 78.5002 7.47552 78.4207 7.47552C74.3074 7.47552 70.194 7.47552 66.0807 7.47552C66.0121 7.47552 65.9435 7.47552 65.8712 7.47913C65.8062 7.47913 65.7593 7.52247 65.7557 7.58025C65.7557 7.61636 65.7521 7.64887 65.7521 7.68498C65.7521 7.78971 65.7521 7.89444 65.7521 7.99556C65.7521 12.4411 65.7521 16.8831 65.7521 21.3287C65.7521 21.4443 65.7521 21.5598 65.7484 21.6754C65.7484 21.7404 65.7087 21.7801 65.6401 21.7801C65.5462 21.7837 65.4559 21.7837 65.362 21.7837C63.4552 21.7837 61.5484 21.7837 59.6416 21.7837C59.5622 21.7837 59.4791 21.7837 59.3997 21.7801C59.3058 21.7765 59.2697 21.744 59.2661 21.661C59.2661 21.6248 59.2624 21.5923 59.2624 21.5562C59.2624 21.4623 59.2624 21.372 59.2624 21.2781C59.2624 15.24 59.2624 9.20175 59.2661 3.16717C59.2661 3.01188 59.2191 2.84575 59.3058 2.69408C59.4502 2.65074 59.6019 2.67241 59.75 2.67241C63.9211 2.67241 68.0922 2.67241 72.2633 2.67241Z" fill="#E3000F"/>
<path d="M89.6918 12.2282C89.6918 9.20547 89.6918 6.17915 89.6918 3.15644C89.6918 3.03004 89.6954 2.90364 89.699 2.77724C89.699 2.73752 89.7459 2.69418 89.7893 2.69418C89.8832 2.69057 89.9735 2.68696 90.0674 2.68696C91.985 2.68696 93.9026 2.68696 95.8203 2.68696C95.9141 2.68696 96.0044 2.69057 96.0983 2.69418C96.138 2.69418 96.1778 2.74113 96.1814 2.78808C96.185 2.82419 96.185 2.85669 96.1886 2.89281C96.1886 2.9867 96.1886 3.07699 96.1886 3.17088C96.1886 5.28353 96.1886 7.39618 96.1886 9.50882C96.1886 9.94941 96.1561 9.90607 96.5714 9.90607C100.894 9.90607 105.213 9.90607 109.536 9.90607C109.63 9.90607 109.72 9.90246 109.814 9.89885C109.858 9.89885 109.897 9.85551 109.901 9.80857C109.905 9.77245 109.908 9.73995 109.908 9.70384C109.908 9.60994 109.908 9.51966 109.908 9.42576C109.908 7.32395 109.908 5.22575 109.908 3.12394C109.908 3.00837 109.912 2.89281 109.915 2.77724C109.915 2.73752 109.966 2.69418 110.009 2.69057C110.078 2.68696 110.147 2.68335 110.215 2.68335C112.18 2.68335 114.144 2.68335 116.109 2.68335C116.177 2.68335 116.246 2.68696 116.315 2.69057C116.362 2.69418 116.405 2.7303 116.409 2.77363C116.412 2.80975 116.416 2.84225 116.416 2.87836C116.416 2.95781 116.416 3.04087 116.416 3.12032C116.416 9.20186 116.416 15.287 116.416 21.3685C116.416 21.4841 116.412 21.5997 116.409 21.7152C116.409 21.7586 116.362 21.7983 116.315 21.7983C116.268 21.8019 116.221 21.8055 116.177 21.8055C114.18 21.8055 112.18 21.8055 110.183 21.8055C110.114 21.8055 110.045 21.7983 109.977 21.7875C109.959 21.7838 109.937 21.7622 109.93 21.7405C109.919 21.7225 109.915 21.6972 109.915 21.6719C109.912 21.5672 109.912 21.4624 109.912 21.3613C109.912 19.1006 109.912 16.8363 109.912 14.5756C109.912 14.135 109.959 14.1819 109.529 14.1819C105.206 14.1819 100.887 14.1819 96.5642 14.1819C96.4703 14.1819 96.38 14.1855 96.2861 14.1891C96.2464 14.1891 96.1994 14.2397 96.1994 14.2794C96.1958 14.395 96.1922 14.5106 96.1922 14.6261C96.1922 16.8543 96.1922 19.0825 96.1922 21.3108C96.1922 21.4155 96.1922 21.5202 96.1922 21.6213C96.1886 21.755 96.1669 21.8055 96.008 21.8019C95.9394 21.7983 95.8708 21.8019 95.7986 21.8019C93.8918 21.8019 91.985 21.8019 90.0782 21.8019C89.9843 21.8019 89.894 21.7983 89.8001 21.7983C89.7568 21.7983 89.7098 21.755 89.7062 21.7152C89.7026 21.6827 89.6954 21.6466 89.6954 21.6141C89.6954 21.5094 89.6954 21.4047 89.6954 21.3035C89.6918 18.2772 89.6918 15.2509 89.6918 12.2282Z" fill="#21327A"/>
<path d="M132.501 21.8053C128.767 21.8053 125.036 21.8053 121.302 21.8053C121.186 21.8053 121.071 21.8017 120.955 21.7981C120.898 21.7981 120.854 21.7476 120.851 21.6826C120.847 21.6248 120.847 21.567 120.847 21.5092C120.847 20.1008 120.847 18.6924 120.847 17.2839C120.847 17.2153 120.851 17.1467 120.854 17.0781C120.858 17.0384 120.901 16.9986 120.948 16.995C120.984 16.9914 121.017 16.9914 121.053 16.9878C121.132 16.9878 121.215 16.9878 121.295 16.9878C128.759 16.9878 136.224 16.9878 143.689 16.9878C143.804 16.9878 143.92 16.9914 144.036 16.9914C144.093 16.9914 144.137 17.042 144.14 17.107C144.144 17.1648 144.144 17.2225 144.144 17.2803C144.144 18.6887 144.144 20.0972 144.144 21.5056C144.144 21.5742 144.14 21.6428 144.137 21.7115C144.133 21.7512 144.09 21.7909 144.043 21.7945C144.007 21.7981 143.974 21.7981 143.938 21.8017C143.833 21.8017 143.729 21.8017 143.627 21.8017C139.919 21.8054 136.21 21.8053 132.501 21.8053Z" fill="#21327A"/>
<path d="M128.474 36.0811C124.776 36.0811 121.078 36.0811 117.38 36.0811C117.265 36.0811 117.149 36.0775 117.033 36.0739C116.994 36.0739 116.95 36.0269 116.947 35.98C116.943 35.9222 116.94 35.8644 116.94 35.8066C116.94 34.3765 116.94 32.9428 116.94 31.5127C116.94 31.4658 116.94 31.4188 116.943 31.3755C116.947 31.3177 116.997 31.2744 117.062 31.2744C117.156 31.2708 117.246 31.2708 117.34 31.2708C124.769 31.2708 132.201 31.2708 139.63 31.2708C139.734 31.2708 139.836 31.2744 139.94 31.2816C139.984 31.2852 140.027 31.3285 140.031 31.3719C140.034 31.4297 140.038 31.4874 140.038 31.5452C140.038 32.9645 140.038 34.3837 140.038 35.8066C140.038 35.8644 140.034 35.9222 140.031 35.98C140.027 36.0377 139.976 36.0811 139.915 36.0811C139.81 36.0847 139.706 36.0847 139.604 36.0847C137.56 36.0847 135.513 36.0847 133.469 36.0847C131.804 36.0811 130.139 36.0811 128.474 36.0811Z" fill="#21327A"/>
<path d="M132.393 7.48285C128.694 7.48285 125 7.48285 121.302 7.48285C121.186 7.48285 121.071 7.48285 120.955 7.47924C120.89 7.47924 120.854 7.4359 120.851 7.36729C120.847 7.29867 120.847 7.23005 120.847 7.16144C120.847 5.77468 120.847 4.39152 120.847 3.00476C120.847 2.94698 120.847 2.8892 120.847 2.83142C120.851 2.72669 120.887 2.69057 120.991 2.68696C121.085 2.68335 121.176 2.68335 121.27 2.68335C128.687 2.68335 136.105 2.68335 143.519 2.68335C143.624 2.68335 143.729 2.68696 143.83 2.68696C143.895 2.69057 143.931 2.7303 143.931 2.79891C143.934 2.87836 143.934 2.96142 143.934 3.04087C143.934 4.40236 143.934 5.76384 143.934 7.12532C143.934 7.16144 143.934 7.19394 143.934 7.23005C143.931 7.47563 143.931 7.47563 143.685 7.47924C143.591 7.47924 143.501 7.47924 143.407 7.47924C139.742 7.48285 136.069 7.48285 132.393 7.48285Z" fill="#21327A"/>
<path d="M128.926 14.1819C126.383 14.1819 123.844 14.1819 121.302 14.1819C121.197 14.1819 121.093 14.1819 120.991 14.1819C120.869 14.1819 120.858 14.1169 120.854 14.0266C120.854 13.9905 120.854 13.958 120.854 13.9219C120.854 12.6651 120.854 11.4048 120.854 10.148C120.854 10.1119 120.854 10.0794 120.854 10.0433C120.858 9.93132 120.887 9.90243 120.999 9.89882C121.093 9.89521 121.183 9.89882 121.277 9.89882C126.394 9.89882 131.511 9.89882 136.629 9.89882C136.733 9.89882 136.838 9.89882 136.939 9.90243C136.997 9.90243 137.04 9.95299 137.044 10.018C137.048 10.0974 137.048 10.1805 137.048 10.26C137.048 11.4481 137.048 12.6362 137.048 13.8244C137.048 13.8605 137.048 13.893 137.048 13.9291C137.044 14.1711 137.037 14.1819 136.795 14.1819C135.881 14.1819 134.971 14.1819 134.057 14.1819C132.346 14.1819 130.634 14.1819 128.926 14.1819Z" fill="#21327A"/>
<path d="M125.007 38.4971C127.571 38.4971 130.135 38.4971 132.703 38.4971C133.183 38.4971 133.126 38.4357 133.126 38.9197C133.129 40.0609 133.126 41.2057 133.126 42.3469C133.126 42.4408 133.126 42.531 133.126 42.6249C133.122 42.7297 133.086 42.7658 132.981 42.7694C132.887 42.773 132.797 42.773 132.703 42.773C127.597 42.773 122.49 42.773 117.384 42.773C117.257 42.773 117.131 42.7658 117.005 42.7586C116.986 42.7586 116.961 42.7297 116.958 42.7116C116.947 42.6538 116.943 42.596 116.943 42.5419C116.943 42.1266 116.943 41.7113 116.943 41.2959C116.943 40.4653 116.943 39.6347 116.943 38.8041C116.943 38.7247 116.95 38.6416 116.958 38.5621C116.961 38.5441 116.986 38.526 117.005 38.5152C117.023 38.5044 117.048 38.5044 117.073 38.5044C117.189 38.5044 117.304 38.5008 117.42 38.5008C119.948 38.4971 122.476 38.4971 125.007 38.4971Z" fill="#21327A"/>
<path d="M173.28 15.2472C173.28 15.063 173.259 14.8789 173.226 14.6983C173.107 14.0483 172.815 13.4777 172.403 12.9648C172.186 12.694 171.941 12.4484 171.673 12.2281C171.612 12.1776 171.554 12.1234 171.496 12.0656C171.486 12.0548 171.489 12.0187 171.5 12.0078C171.558 11.9537 171.623 11.9067 171.684 11.8525C172.154 11.4481 172.533 10.975 172.8 10.4116C173.01 9.96742 173.129 9.50155 173.125 9.00679C173.121 8.46509 173.125 7.92339 173.125 7.37807C173.125 6.9736 173.078 6.57274 172.988 6.17549C172.681 4.83206 171.919 3.84616 170.673 3.23945C170.023 2.92165 169.33 2.75553 168.607 2.70136C168.344 2.6833 168.076 2.67969 167.809 2.67969C164.772 2.67969 161.731 2.67969 158.694 2.67969C155.505 2.67969 152.316 2.67969 149.128 2.67969C149.048 2.67969 148.965 2.67969 148.886 2.67969C148.839 2.67969 148.792 2.67969 148.748 2.67969C148.611 2.6833 148.582 2.70858 148.579 2.83498C148.579 2.92887 148.579 3.01916 148.579 3.11305C148.579 4.41675 148.575 5.72045 148.579 7.02416C148.579 7.55141 148.506 7.47558 149.041 7.47558C154.761 7.47558 160.478 7.47558 166.199 7.47558C166.303 7.47558 166.408 7.47558 166.509 7.47558C166.545 7.47558 166.578 7.47558 166.614 7.4828C166.646 7.49002 166.679 7.50808 166.682 7.5478C166.69 7.60559 166.693 7.66337 166.693 7.72115C166.693 8.36758 166.693 9.01402 166.693 9.66045C166.693 9.7074 166.69 9.75073 166.686 9.79768C166.682 9.84463 166.643 9.88797 166.599 9.88797C166.473 9.89158 166.347 9.89519 166.217 9.89519C160.464 9.89519 154.711 9.89519 148.954 9.89519C148.525 9.89519 148.571 9.85185 148.571 10.2888C148.571 13.9941 148.571 17.6993 148.571 21.4046C148.571 21.4985 148.571 21.5888 148.575 21.6827C148.575 21.7441 148.622 21.7946 148.68 21.7946C148.785 21.7982 148.889 21.7982 148.99 21.7982C155.31 21.7982 161.63 21.7982 167.95 21.7982C168.391 21.7982 168.828 21.7621 169.257 21.6791C170.027 21.5274 170.738 21.2385 171.377 20.7798C172.06 20.2923 172.576 19.6675 172.908 18.8947C173.143 18.3458 173.266 17.7752 173.27 17.1793C173.284 16.5401 173.288 15.8937 173.28 15.2472ZM166.697 16.8326C166.697 16.8651 166.693 16.9012 166.682 16.9337C166.675 16.9518 166.654 16.9698 166.632 16.9771C166.61 16.9843 166.585 16.9843 166.563 16.9843C166.459 16.9843 166.354 16.9843 166.253 16.9843C162.685 16.9843 159.117 16.9843 155.549 16.9843C155.014 16.9843 155.094 17.0637 155.09 16.5329C155.086 15.8539 155.09 15.1714 155.09 14.4925C155.09 14.413 155.09 14.3299 155.101 14.2505C155.104 14.2216 155.133 14.1891 155.173 14.1891C155.289 14.1855 155.404 14.1819 155.52 14.1819C157.311 14.1819 159.099 14.1819 160.89 14.1819C162.692 14.1819 164.494 14.1819 166.292 14.1819C166.408 14.1819 166.524 14.1855 166.639 14.1927C166.657 14.1927 166.682 14.218 166.686 14.2397C166.697 14.2722 166.697 14.3083 166.697 14.3408C166.697 15.1714 166.697 16.002 166.697 16.8326Z" fill="#21327A"/>
</g>
<defs>
<clipPath id="clip0_48_2">
<rect width="260" height="50.4254" fill="white"/>
</clipPath>
</defs>
</svg>
