<svg width="80" height="80" viewBox="0 0 80 80" fill="none" xmlns="http://www.w3.org/2000/svg">
<g clip-path="url(#clip0_52_5)">
<path d="M3.85204 0C28.5406 0 53.2292 0 77.9177 0C77.9063 0.0344747 77.9005 0.0746952 77.8776 0.0976783C77.7916 0.189611 77.6999 0.281543 77.6082 0.373476C72.0422 5.94689 66.482 11.5145 60.916 17.088C60.7727 17.2316 60.6294 17.3695 60.4804 17.5074C60.2626 17.5706 60.0447 17.5419 59.8269 17.5419C46.0353 17.5419 32.2436 17.5419 18.4519 17.5419C17.7354 17.5419 17.7354 17.5419 17.7068 17.6108C17.615 17.8407 17.6609 18.082 17.6609 18.3176C17.6609 32.1074 17.6609 45.9031 17.6609 59.6929C17.6609 59.8768 17.6609 60.0607 17.6609 60.2445C17.6609 60.3594 17.615 60.4571 17.5291 60.5376C17.4316 60.6238 17.3456 60.7214 17.2596 60.8076C11.6822 66.3925 6.10479 71.9774 0.533094 77.5623C0.429915 77.6657 0.332467 77.7749 0.217823 77.8668C0.166234 77.9071 0.0802507 77.9013 0.0114644 77.9186C0 53.1945 0 28.4704 0 3.74625C0 1.67777 1.6738 0 3.73739 0H3.85204Z" fill="#E3000F"/>
<path d="M79.9986 39.2323C79.9986 51.2984 79.9986 63.3645 79.9986 75.4307C79.9986 75.649 80.0043 75.8731 79.9928 76.0914C79.9183 77.8094 78.7719 79.3895 76.9146 79.8722C76.5994 79.9526 76.2669 80.0101 75.9344 79.9986C75.7682 79.9928 75.602 79.9986 75.4415 79.9986C51.2688 79.9986 27.0961 79.9986 2.92345 79.9986C2.74002 79.9986 2.55659 79.9928 2.37316 79.9928C2.32731 79.9928 2.29865 79.9756 2.29865 79.9296C2.29865 79.8952 2.30438 79.8607 2.32157 79.832C2.33877 79.8032 2.36743 79.7745 2.39609 79.7515C2.48781 79.6596 2.57952 79.5676 2.66551 79.4757C8.13975 73.9942 13.6083 68.5128 19.0825 63.037C19.2373 62.8819 19.3978 62.7268 19.5526 62.5716C19.6328 62.4854 19.736 62.451 19.8449 62.451C20.0283 62.451 20.2118 62.451 20.3952 62.451C34.1697 62.451 47.9441 62.451 61.7129 62.451C61.9135 62.451 62.1141 62.4452 62.3147 62.4337C62.3835 62.4337 62.4523 62.359 62.458 62.2901C62.4638 62.1809 62.4695 62.0717 62.4695 61.9626C62.4695 58.0325 62.4695 54.1023 62.4695 50.1722C62.4695 50.0631 62.4695 49.9481 62.4523 49.8447C62.4466 49.8045 62.395 49.7528 62.3491 49.7355C62.3033 49.7126 62.2402 49.7126 62.1886 49.7126C62.0224 49.7126 61.8562 49.7126 61.6957 49.7126C52.1745 49.7126 42.659 49.7126 33.1379 49.7126C32.9544 49.7126 32.771 49.7068 32.5876 49.7011C32.5761 49.7011 32.5589 49.6896 32.5474 49.6781C32.5188 49.6436 32.5188 49.6091 32.5474 49.5804C32.6334 49.4885 32.7194 49.3908 32.8111 49.2989C38.4 43.7025 43.9889 38.1061 49.5778 32.5097C49.9619 32.1247 49.8185 32.1707 50.386 32.1707C54.1292 32.1707 57.8666 32.1707 61.6097 32.1707C61.7358 32.1707 61.8676 32.1707 61.9937 32.1707C62.458 32.1707 62.4638 32.1822 62.4638 31.6708C62.4638 27.8671 62.458 24.0691 62.4638 20.2654C62.4638 19.438 62.3663 19.6966 62.9338 19.1278C68.4539 13.5946 73.9798 8.06138 79.5056 2.52819C79.6202 2.41328 79.7463 2.30411 79.8725 2.19494C79.8897 2.18345 79.947 2.19494 79.9642 2.21792C79.9814 2.2409 79.9814 2.28687 79.9814 2.32135C79.9814 2.50521 79.9814 2.68908 79.9814 2.87294C79.9986 14.9908 79.9986 27.1087 79.9986 39.2323Z" fill="#21327A"/>
</g>
<defs>
<clipPath id="clip0_52_5">
<rect width="80" height="80" fill="white"/>
</clipPath>
</defs>
</svg>
